Coordinates
version=1
nRows=9
nColumns=24
inDegrees=yes

Units are S.I. units (second, meters, Newtons, ...)
Angles are in degrees.

endheader
time	pelvis_tilt	pelvis_list	pelvis_rotation	pelvis_tx	pelvis_ty	pelvis_tz	hip_flexion_r	hip_adduction_r	hip_rotation_r	knee_angle_r	ankle_angle_r	subtalar_angle_r	mtp_angle_r	hip_flexion_l	hip_adduction_l	hip_rotation_l	knee_angle_l	ankle_angle_l	subtalar_angle_l	mtp_angle_l	lumbar_extension	lumbar_bending	lumbar_rotation
      4.87000000	     -6.50772823	     -5.28116178	      3.29192938	     -1.50741098	     -0.00044236	     -0.27714977	     11.08957953	      9.64403016	      5.83860616	    -14.01995657	      1.47768327	     -5.20071103	     10.29174686	     25.28640920	     -7.54268344	      0.04415046	    -62.92846761	    -13.92513873	     -4.58300180	     22.38906064	      6.00108304	      4.82514408	      1.98704235
      4.87500000	     -6.54199802	     -5.03919423	      3.17042862	     -1.50290129	     -0.00003984	     -0.27667365	     10.65134479	      9.43467906	      5.98019296	    -13.75081641	      1.67274537	     -5.11390018	     10.33137706	     25.86592970	     -7.24059783	     -0.14648129	    -62.44191313	    -13.28781370	     -4.70360277	     22.39536214	      5.93476544	      4.57516382	      2.25806755
      4.88000000	     -6.58745989	     -4.81805426	      3.06268398	     -1.49832828	      0.00034894	     -0.27622701	     10.20611946	      9.23676829	      6.10335398	    -13.44091861	      1.81214975	     -5.00425736	     10.37905942	     26.43567212	     -6.95040596	     -0.30344200	    -61.88054561	    -12.70738426	     -4.82064296	     22.42276312	      5.90223252	      4.34043609	      2.50709535
      4.88500000	     -6.55563189	     -4.59484544	      2.85831408	     -1.49380905	      0.00072618	     -0.27572320	      9.69588144	      9.05084704	      6.26686690	    -13.16689825	      2.02945438	     -4.79756790	     10.54292140	     26.88215889	     -6.72256420	     -0.59126176	    -61.26722896	    -12.08006720	     -4.94447566	     22.29970266	      5.76279664	      4.14003831	      2.88803467
      4.89000000	     -6.60761421	     -4.41324233	      2.80362439	     -1.48928746	      0.00096684	     -0.27541129	      9.26478941	      8.87685760	      6.33380360	    -12.84702437	      2.15558420	     -4.74673593	     10.60016761	     27.45222826	     -6.44181098	     -0.66934126	    -60.61076883	    -11.55514330	     -5.05988179	     22.30857875	      5.73863545	      3.95347862	      3.07397143
      4.89500000	     -6.55737776	     -4.20336552	      2.61264177	     -1.48478039	      0.00125474	     -0.27492812	      8.73868871	      8.69972628	      6.49343867	    -12.56872423	      2.35143646	     -4.58174101	     10.82593577	     27.84501586	     -6.22447106	     -0.92348808	    -59.88073832	    -10.97178076	     -5.17031176	     22.11461452	      5.58474268	      3.75213233	      3.42880722
      4.90000000	     -6.53737324	     -4.01878023	      2.50175031	     -1.48026019	      0.00146218	     -0.27459589	      8.23369529	      8.52969720	      6.60838742	    -12.25436594	      2.47785675	     -4.52015072	     11.03954790	     28.27895560	     -5.97935820	     -1.06479852	    -59.11201715	    -10.43258121	     -5.25352742	     21.86090008	      5.47752539	      3.57736598	      3.69509052
      4.90500000	     -6.60317319	     -3.88042348	      2.45081600	     -1.47580206	      0.00150359	     -0.27434198	      7.84635116	      8.40030351	      6.67447376	    -11.97311979	      2.59353325	     -4.52694816	     11.09068297	     28.81958775	     -5.73844961	     -1.08974720	    -58.29803960	     -9.97969774	     -5.34981839	     21.84153800	      5.46295822	      3.43809748	      3.86494267
      4.91000000	     -6.55768646	     -3.69418723	      2.25618055	     -1.47134429	      0.00163853	     -0.27394875	      7.34677154	      8.24539274	      6.90675635	    -11.72762459	      2.73827218	     -4.50198107	     11.25359489	     29.16379364	     -5.54806352	     -1.31679163	    -57.40113140	     -9.48308777	     -5.45320546	     21.57331876	      5.31382293	      3.27268119	      4.19491538
